<svg width="229" height="44" viewBox="0 0 229 44" fill="none" xmlns="http://www.w3.org/2000/svg">
<g clip-path="url(#clip0_1789_5641)">
<path d="M176.182 33.4725L159.9 12.6528H156.512V23.4468C155.981 22.7651 155.446 22.0835 154.915 21.4047C153.341 19.3915 151.764 17.3754 150.19 15.3622C149.482 14.4581 148.777 13.5569 148.069 12.6528H144.681L144.78 12.7741C144.583 12.8579 144.684 13.2218 144.684 13.476C144.684 14.2443 144.684 15.0127 144.684 15.781C144.684 17.3176 144.684 18.8513 144.684 20.388C144.684 23.4584 144.684 26.5316 144.684 29.602C144.684 30.5841 144.684 31.569 144.684 32.5511C144.684 32.8717 144.684 33.2038 144.826 33.4898C145.028 33.9028 145.467 34.1397 145.886 34.3245C147.463 35.0235 149.34 35.399 150.883 34.6307C151.772 34.1859 152.46 33.3974 152.899 32.5048C153.341 31.6152 153.549 30.6245 153.65 29.6338C153.751 28.6402 153.742 27.6437 153.661 26.65C153.572 25.5524 153.387 24.4577 153.162 23.3775C154.357 24.891 155.559 26.4016 156.749 27.9181C157.841 29.3074 158.875 30.8007 160.103 32.0745C160.241 32.2189 160.388 32.3575 160.542 32.4875C161.648 33.4436 163.092 34.1657 164.565 34.2639C165.284 34.313 166.018 34.1888 166.651 33.8335C167.075 33.5938 167.442 33.2905 167.67 32.8572C167.754 32.6955 167.817 32.5279 167.872 32.3546C168.176 31.3524 168.066 30.2172 167.939 29.1918C167.817 28.2156 167.607 27.2566 167.384 26.2977L173.092 33.4667H176.182V33.4725ZM152.723 27.9209C152.445 29.3738 151.986 31.1069 150.6 31.8809C149.228 32.6464 147.116 32.2882 146.157 30.9942C145.542 30.1652 145.519 29.0532 145.522 28.022C145.531 23.4295 145.539 18.8369 145.548 14.2443C145.548 14.0682 145.548 13.8891 145.528 13.7158C146.282 14.6689 147.032 15.6221 147.786 16.5753C149.493 18.7387 151.203 20.8992 152.91 23.0626C152.951 23.1146 152.994 23.1666 153.035 23.2215C153.035 24.7928 153.02 26.3756 152.723 27.9238V27.9209ZM167.491 30.0641C167.425 30.7054 167.332 31.439 166.786 31.8636C166.237 32.2911 165.461 32.2189 164.825 32.0774C163.095 31.6932 161.076 29.2843 159.802 27.6523C158.979 26.5981 158.153 25.5438 157.33 24.4924V13.6782L167.344 26.2543C167.439 27.3346 167.592 29.0676 167.491 30.0641Z" fill="black"/>
<path d="M57.4237 21.6023C54.0125 20.5769 51.8086 19.7219 51.8086 17.6451C51.8086 15.4355 54.5526 14.6499 56.5774 14.6499C57.1782 14.6499 57.7876 14.7221 58.3826 14.8578C60.2168 15.2738 61.8401 16.328 63.0561 17.7636L63.8446 18.6965V14.9676L63.6713 14.7885C61.8314 12.8822 59.434 11.9146 56.5485 11.9146C54.1598 11.9146 51.5776 12.6078 50.3298 13.8671C49.3419 14.8636 48.848 16.1576 48.8596 17.7087C48.8596 21.556 52.8051 23.084 56.1008 24.0718C59.8355 25.1694 61.2537 26.0215 61.2537 28.029C61.2537 30.0364 59.2838 31.1167 56.6409 31.1167C54.6335 31.1167 53.2211 30.7758 51.7422 29.6667C51.1414 29.2161 50.1103 28.2109 48.8596 25.6691L48.9924 30.0335L49.1282 30.2213C50.7255 32.4222 53.3713 33.826 56.6698 33.826C59.0441 33.826 61.4386 33.1241 62.7037 31.8503C63.7002 30.848 64.2172 29.5049 64.2057 27.9712C64.2057 24.2625 61.2595 22.7432 57.4266 21.608L57.4237 21.6023Z" fill="black"/>
<path d="M69.4512 33.2931V12.6526H84.2109V15.255H72.5129V20.6448H84.2109V23.0942H72.5129V30.6878H84.2109V33.2902H69.4512V33.2931Z" fill="black"/>
<path d="M123.093 15.255V33.2931H120.031V15.255H112.559V12.6526H130.536V15.255H123.095H123.093Z" fill="black"/>
<path d="M178.336 33.2934V12.6528H181.398V33.2934H178.336Z" fill="black"/>
<path d="M135.273 33.2931V12.6526H138.335V33.2931H135.273Z" fill="black"/>
<path d="M202.541 12.6536V26.7086L188.547 12.1626H188.119V16.3161L205.207 33.7852H205.574V12.6536H202.541Z" fill="black"/>
<path d="M188.29 16.3167H188.119V33.2947H191.487C191.239 26.7871 189.757 21.796 188.29 16.3167Z" fill="black"/>
<path d="M220.77 15.2553V33.2934H217.709V15.2553H210.236V12.6528H228.214V15.2553H220.773H220.77Z" fill="black"/>
<path d="M104.857 12.6536V26.7086L90.863 12.1626H90.4355V16.3161L107.523 33.7852H107.89V12.6536H104.857Z" fill="black"/>
<path d="M90.606 16.3164H90.4355V33.2944H93.8034C93.555 26.7869 92.0733 21.7957 90.606 16.3164Z" fill="black"/>
<path d="M15.2863 0.0283958C15.2863 0.0283958 15.2863 0.022619 15.2863 0.0197306C15.2921 0.00528853 15.2979 -0.000488281 15.3066 -0.000488281H14.8906C15.0177 0.0601682 15.1535 0.0197306 15.2863 0.0283958Z" fill="black"/>
<path d="M15.3152 0.051503C15.295 0.0457262 15.2863 0.037061 15.2863 0.0283958C15.1535 0.0197306 15.0177 0.0601682 14.8906 -0.000488281C15.0235 0.0948291 15.1708 0.0659451 15.3152 0.051503Z" fill="black"/>
<path d="M15.2852 0.0207806C15.2852 0.0207806 15.2852 0.0267082 15.2852 0.029672C15.2911 0.029672 15.3 0.029672 15.3059 0.029672C15.3059 0.0207806 15.3059 0.00892546 15.3059 -0.00292969C15.3 -0.00292969 15.2911 0.00299788 15.2852 0.0178168V0.0207806Z" fill="black"/>
<path d="M15.315 0.0507577C15.315 0.0507577 15.3061 0.0358188 15.3061 0.0268555C15.3001 0.0268555 15.2911 0.0268555 15.2852 0.0268555C15.2852 0.0358188 15.2971 0.0447821 15.315 0.0507577Z" fill="black"/>
<path d="M43.5255 16.7148C43.4388 15.5507 42.9795 14.56 42.1968 13.705C41.6307 13.0898 40.9894 12.5526 40.3049 12.0846C38.6845 10.9726 37.5696 9.48219 36.8359 7.67116C36.3738 6.52446 35.8336 5.40954 35.1144 4.39859C33.7338 2.45759 31.8216 1.46975 29.4734 1.24734C28.0869 1.11448 26.7178 1.25601 25.3545 1.45531C22.934 1.80769 20.58 1.61995 18.2721 0.80253C17.3132 0.464586 16.3369 0.164192 15.3173 0.0544327C15.1729 0.0688747 15.0256 0.0948704 14.8927 0.00244141H14.0002C13.5987 0.123754 13.1799 0.172857 12.7842 0.323054C11.3544 0.87474 10.4272 1.94345 9.73112 3.25479C9.24009 4.17908 8.87326 5.16113 8.44 6.11142C7.61103 7.92534 6.24193 9.19912 4.50599 10.1234C3.62503 10.5913 2.74118 11.065 1.97286 11.7091C0.748179 12.7345 0.109842 14.0632 0.00585938 15.6518V16.1313C0.0520739 17.4311 0.554656 18.52 1.38941 19.5194C6.4961 25.6341 11.5768 31.7691 16.4929 38.037C16.7384 38.3489 16.9723 38.6695 17.215 38.9815C17.2612 39.0392 17.3074 39.1346 17.3998 39.1057C17.4923 39.0768 17.4634 38.9699 17.4692 38.8977C17.4836 38.7302 17.4894 38.5627 17.4894 38.3922C17.4894 33.0862 17.4894 27.7802 17.4894 22.4742C17.4894 21.7406 17.4894 21.0069 17.498 20.2733C17.5009 19.8198 17.5876 19.7216 18.0237 19.6349C18.8094 19.4818 19.6037 19.5367 20.3951 19.5569C20.6926 19.5656 20.9901 19.5685 21.2876 19.5887C21.7007 19.6147 22.0328 19.7765 22.2928 20.1288C24.0692 22.5349 25.8542 24.9352 27.6392 27.3354C29.5369 29.8859 31.4404 32.4335 33.3409 34.981C33.3756 35.0272 33.4132 35.0735 33.4478 35.1226C33.4825 35.1746 33.5287 35.2237 33.5893 35.2179C33.676 35.2063 33.6818 35.1197 33.6818 35.0561C33.6933 34.6806 33.7049 34.3023 33.7049 33.9268C33.7049 30.0881 33.6991 26.2494 33.702 22.4136C33.702 21.7088 33.7222 21.0069 33.7395 20.3022C33.7511 19.8516 33.9186 19.6263 34.3692 19.6003C35.4466 19.5309 36.5297 19.4674 37.6013 19.6552C38.0721 19.736 38.4216 20.0509 38.7018 20.4177C39.4297 21.3709 40.1374 22.3356 40.8566 23.2945C41.183 23.7307 41.518 24.1611 41.8502 24.5914C41.8993 24.655 41.9513 24.7156 42.0119 24.7647C42.0986 24.8369 42.1881 24.9525 42.3181 24.8947C42.4279 24.8456 42.4365 24.7156 42.4452 24.6117C42.4798 24.1784 42.5087 23.7422 42.5347 23.3061C42.6069 22.1218 42.9391 20.9896 43.1933 19.84C43.4186 18.8117 43.6092 17.7835 43.5312 16.7205L43.5255 16.7148ZM16.7933 11.972C16.4755 12.1077 16.1549 12.2377 15.8343 12.3648C14.8292 12.7634 14.2226 13.4769 14.0926 14.5687C14.0839 14.6467 14.0724 14.7246 14.0551 14.8026C14.0117 15.0048 13.8875 15.1146 13.6825 15.1175C13.4687 15.1175 13.3214 15.0222 13.2781 14.8026C13.2463 14.638 13.2319 14.4676 13.1972 14.3029C12.995 13.2949 12.3451 12.6854 11.4208 12.3244C11.1002 12.1973 10.7796 12.0702 10.4619 11.9287C10.2655 11.842 10.1384 11.6947 10.1875 11.4607C10.2337 11.2441 10.3926 11.1546 10.5948 11.1344C11.7646 11.013 12.4982 10.3487 12.9113 9.28C13.0268 8.97672 13.1452 8.67055 13.281 8.37593C13.3561 8.21129 13.4745 8.07265 13.6911 8.08709C13.9424 8.10153 14.0522 8.26328 14.0868 8.49146C14.1504 8.90739 14.2948 9.29444 14.5172 9.64972C15.0227 10.4585 15.7506 10.9466 16.6835 11.1228C16.9117 11.1661 17.1139 11.221 17.1514 11.4896C17.1861 11.7611 17.0012 11.8796 16.7933 11.972Z" fill="black"/>
<path d="M26.4112 30.2366C25.1229 27.9288 23.5459 25.8203 21.937 23.7348C21.2409 22.8337 20.5477 21.9354 19.8516 21.0342C19.8285 21.04 19.8083 21.0428 19.7852 21.0486V21.2739C19.7852 27.0565 19.7852 32.8391 19.7852 38.6217C19.7852 39.0549 19.8689 39.4766 20.0884 39.8493C20.5679 40.6724 21.1571 41.4205 21.7522 42.16C22.506 43.0958 23.5112 43.3789 24.655 43.1738C26.2003 42.8965 27.2401 41.9376 27.9102 40.5685C28.7392 38.8787 28.797 37.0995 28.4244 35.2885C28.0518 33.4861 27.3037 31.831 26.4112 30.2366Z" fill="black"/>
<path d="M37.6657 23.0898C37.166 22.4139 36.6663 21.7438 36.1175 21.0044C36.106 21.2557 36.0915 21.429 36.0915 21.6023C36.0858 25.2215 36.0771 28.8406 36.0742 32.4598C36.0742 33.4996 36.0742 34.5424 36.08 35.5822C36.08 35.6371 36.0742 35.7208 36.106 35.7439C36.1782 35.8017 36.2273 35.715 36.2793 35.6746C36.4959 35.5013 36.7068 35.3222 36.9292 35.1547C37.9892 34.3517 39.1504 33.7076 40.2422 32.9537C41.2242 32.275 42.1428 31.5269 42.8215 30.5217C42.9457 30.3368 42.9515 30.2184 42.8129 30.0336C41.0943 27.7228 39.3814 25.4034 37.6686 23.0869L37.6657 23.0898Z" fill="black"/>
<path d="M8.30414 33.8286C6.34291 31.0557 4.28059 28.3609 2.27315 25.6227C1.95253 25.1865 1.62903 24.7532 1.29109 24.2969C1.26509 24.3604 1.24776 24.3864 1.24776 24.4095C1.18999 25.3598 1.08601 26.3043 1.0629 27.2575C1.03691 28.4129 1.22465 29.5249 1.68969 30.5849C2.31647 32.0147 3.44584 32.9448 4.78028 33.6697C6.08295 34.3774 7.4665 34.9233 8.72584 35.7119C8.87604 35.8072 9.0349 35.8101 9.16199 35.683C9.29775 35.5501 9.31797 35.3883 9.2111 35.2237C8.9107 34.7587 8.62475 34.2821 8.30414 33.8315V33.8286Z" fill="black"/>
</g>
<defs>
<clipPath id="clip0_1789_5641">
<rect width="228.213" height="43.2394" fill="black"/>
</clipPath>
</defs>
</svg>
